<svg xmlns="http://www.w3.org/2000/svg" width="102" height="89" viewBox="0 0 102 89">
  <defs>
    <style>
      .cls-1 {
        fill: #fff;
        fill-rule: evenodd;
      }
    </style>
  </defs>
  <path id="icon_heart.svg" class="cls-1" d="M305.568,5769.18a1.97,1.97,0,1,0,1.993,1.97A1.981,1.981,0,0,0,305.568,5769.18Zm10.351-1.98a24.631,24.631,0,0,0-18.568-8.2,29,29,0,0,0-20.834,8.75,34.864,34.864,0,0,0-4.517,5.56,34.919,34.919,0,0,0-4.517-5.56,29,29,0,0,0-20.834-8.75c-15.112,0-25.649,12.5-25.649,27.37,0,20.08,21.516,36.99,49.695,61.15a2.014,2.014,0,0,0,2.61,0c28.246-24.21,49.695-41.09,49.695-61.15A28.492,28.492,0,0,0,315.919,5767.2ZM272,5843.42c-26.609-22.77-47.016-39.13-47.016-57.05,0-13.36,9.314-23.43,21.665-23.43a24.709,24.709,0,0,1,17.9,7.49,29.2,29.2,0,0,1,5.629,7.69,2,2,0,0,0,1.815,1.16h0a2.005,2.005,0,0,0,1.817-1.16,29.229,29.229,0,0,1,5.629-7.69,24.709,24.709,0,0,1,17.9-7.49c12.351,0,21.665,10.07,21.665,23.43C319.016,5804.69,297.263,5821.8,272,5843.42Zm40.536-67.22a2.011,2.011,0,0,0-2.689-.83,1.961,1.961,0,0,0-.839,2.66,18.1,18.1,0,0,1,2.039,8.34c0,5.7-2.74,11.74-8.623,19.02a1.956,1.956,0,0,0,.313,2.77,2.015,2.015,0,0,0,2.8-.31c6.477-8.02,9.494-14.84,9.494-21.48A21.8,21.8,0,0,0,312.536,5776.2Zm-21.411,20.57H279.969v-11.04a1.986,1.986,0,0,0-1.992-1.97H266.023a1.986,1.986,0,0,0-1.992,1.97v11.04H252.875a1.98,1.98,0,0,0-1.992,1.97v11.82a1.98,1.98,0,0,0,1.992,1.97h11.156v11.04a1.986,1.986,0,0,0,1.992,1.97h11.954a1.986,1.986,0,0,0,1.992-1.97v-11.04h11.156a1.98,1.98,0,0,0,1.992-1.97v-11.82A1.98,1.98,0,0,0,291.125,5796.77Zm-1.992,11.82H277.977a1.98,1.98,0,0,0-1.993,1.97v11.04h-7.968v-11.04a1.98,1.98,0,0,0-1.993-1.97H254.867v-7.88h11.156a1.98,1.98,0,0,0,1.993-1.97V5787.7h7.968v11.04a1.98,1.98,0,0,0,1.993,1.97h11.156v7.88Z" transform="translate(-221 -5759)"/>
</svg>
