<svg xmlns="http://www.w3.org/2000/svg" width="75.031" height="88.03" viewBox="0 0 75.031 88.03">
  <defs>
    <style>
      .cls-1 {
        fill: #fff;
        fill-rule: evenodd;
      }
    </style>
  </defs>
  <path id="icon_stethoscope.svg" class="cls-1" d="M698.418,5805.06a5.562,5.562,0,0,0,2.828,4.38,18.329,18.329,0,0,0,4.274,1.74,45.662,45.662,0,0,1-5.023,11.12,13.074,13.074,0,0,0-.08,13.57c3.689,6.66,11.836,11.15,20.275,11.15a17.67,17.67,0,0,0,14.506-7.54c5.089-6.94,6.216-17.19,3.016-27.41-2.967-9.47,1-14.52,3.626-16.7a12.035,12.035,0,1,0-3.341-5.9c-4.959,3.64-10.681,11.82-6.677,24.61,2.525,8.07,1.752,16.28-2.024,21.43a11.039,11.039,0,0,1-9.107,4.79c-5.984,0-11.913-3.16-14.417-7.69a6.438,6.438,0,0,1-.1-6.75,52.343,52.343,0,0,0,6.181-14.29,17.915,17.915,0,0,0,5.764-1.93,5.579,5.579,0,0,0,2.894-4.22c7.867-7.13,11.5-19.98,11.708-20.73a3.343,3.343,0,0,0-1.653-3.84c1.089-9.65-2.472-14.5-4.621-16.48a2.423,2.423,0,0,0-1.019-2.45l-3.947-2.59a1.975,1.975,0,0,0-2.893.77l-1.881,3.64a1.777,1.777,0,0,0,1.117,2.62l4.463,1.32a2.889,2.889,0,0,0,3.128-1.2c1.779,1.88,4.341,6.06,3.458,14.04a3.33,3.33,0,0,0-2.607,2.39c-1.071,3.86-4.168,11.82-8.767,16.6a5.559,5.559,0,0,0-4.639.26,6.332,6.332,0,0,1-2.9.8h-0.2a6.484,6.484,0,0,1-3.06-.88,5.512,5.512,0,0,0-4.577-.38c-4.5-4.8-7.527-12.6-8.582-16.4a3.35,3.35,0,0,0-2.606-2.39c-0.884-7.98,1.677-12.16,3.458-14.04a2.888,2.888,0,0,0,3.127,1.2l4.464-1.31a1.786,1.786,0,0,0,1.116-2.63l-1.879-3.64a1.976,1.976,0,0,0-2.893-.77l-3.952,2.59a2.423,2.423,0,0,0-1.017,2.45c-2.146,1.98-5.71,6.84-4.622,16.48a3.355,3.355,0,0,0-1.653,3.85C687.293,5785.43,690.816,5797.87,698.418,5805.06Zm51.673-22.94a4.66,4.66,0,1,1-4.653,4.66A4.653,4.653,0,0,1,750.091,5782.12Z" transform="translate(-686.969 -5758.97)"/>
</svg>
