<svg xmlns="http://www.w3.org/2000/svg" width="90" height="90" viewBox="0 0 90 90">
  <defs>
    <style>
      .cls-1 {
        fill: #fff;
        fill-rule: evenodd;
      }
    </style>
  </defs>
  <path id="icon_injection.svg" class="cls-1" d="M1214.27,5779.69l3.73-3.73L1200.04,5758l-3.73,3.73,2.63,2.62-9.32,9.32-9.59-9.58-3.73,3.73,5.25,5.24-41.42,41.42,4.42,4.41-8.83,8.83,4.41,4.42L1128,5844.27l3.73,3.73,12.13-12.13,4.42,4.41,8.83-8.83,4.41,4.42,41.42-41.42,5.24,5.25,3.73-3.73-9.58-9.59,9.32-9.32Zm-65.99,53.13-5.1-5.1,5.1-5.1,5.1,5.1Zm13.24-4.41-13.93-13.93,5.33-5.33,3.21,3.22,3.73-3.73-3.21-3.22,3.77-3.77,3.21,3.22,3.73-3.73-3.21-3.22,3.77-3.77,13.93,13.93Zm24.06-24.06-13.93-13.93,3.77-3.77,3.21,3.21,3.73-3.73-3.21-3.21,6.13-6.13,13.93,13.93Zm13.02-21.7-5.25-5.25,9.32-9.32,5.25,5.25Z" transform="translate(-1128 -5758)"/>
</svg>
